<?xml version="1.0" encoding="utf-8"?>
<!-- Generator: Adobe Illustrator 23.0.3, SVG Export Plug-In . SVG Version: 6.00 Build 0)  -->
<svg version="1.1" id="Layer_1" xmlns="http://www.w3.org/2000/svg" xmlns:xlink="http://www.w3.org/1999/xlink" x="0px" y="0px"
	 viewBox="0 0 1500 844" style="enable-background:new 0 0 1500 844;" xml:space="preserve">
<style type="text/css">
	.st0{fill:#FF1516;}
</style>
<g>
	<g>
		<path class="st0" d="M595.19,275.25c4.35-4.57,14-3.12,14.84,3.85c2.34,12.89-8.29,23.51-18.56,29.38
			c-14.16,8.55-31.33,9.52-47.35,7.26c-6.43,7.76-19.95,10.18-26.44,1.2c2.43-0.58,5.04-0.77,7.28-1.98
			c3.15-2.72,2.23-7.78-0.31-10.6c-4.28-4.87-10.75-7.07-16.94-8.22c-14.4-2.38-29.29-1.06-43.15,3.43
			c-13.3,4.11-26.86,12.3-32.17,25.79c-2.35,6.96-3.36,16.95,3.66,21.56c5.49,2.96,10.99-1.38,14.17-5.65
			c-0.56,16.42-15.83,30.46-32.3,28.92c-11.64-0.51-20.21-11.97-20.02-23.14c-0.32-21.2,14.54-39.83,32.41-49.76
			c24.57-13.53,53.94-15.31,81.26-11.83c25.26,4.68,49.83,17.04,76.09,13.2c6.32-0.57,14.29-7.07,10.17-13.83
			c-2.24,0.42-4.41,1.06-6.52,1.86C592.13,282.78,592.27,278.3,595.19,275.25z"/>
		<g>
			<path class="st0" d="M166.06,291.06c13.08-8.87,29.49-11.3,44.98-10.16c10.82,0.84,22.16,4.19,29.84,12.23
				c6.84,6.92,6.04,20.02-2.69,25.03c-12.55,7.19-29.53,4.82-40.22-4.77c5.36,0.8,11.94,1.11,15.31-4.05
				c4.3-5.17,1.67-13.74-4.51-16.06c-9.91-3.61-21.81-0.18-28.26,8.19c-9.97,12.34-10.6,29.3-9.03,44.41
				c3.85,28.4,17.3,54.15,25.22,81.44c3.22,10.95,4.91,22.69,2.46,33.97c-2.91,12.92-10.15,24.48-19.11,34.09
				c22.43,8.71,43.39,20.94,66.36,28.28c9.63,2.8,19.86,5.32,29.91,3.48c5.16-0.8,9.93-6.39,7.29-11.6c-2-4.03-7.04-3.01-10.69-2.96
				c3.17-8.91,13.91-15.83,22.85-10.4c6.65,3.58,8.4,12.89,4.49,19.11c-3.39,5.33-9.05,8.7-14.7,11.2
				c-20.96,8.58-44.91,9.14-66.48,2.44c-8.07-2.29-15.67-5.88-23.47-8.89c-1.92,3.74-4.58,7.7-9.07,8.41
				c-7.79,1.94-15.15-2.79-19.83-8.66c3.16-0.66,7.87-0.34,8.87-4.29c1.9-6.38-2.6-12.05-6.62-16.46
				c-12.08,8.06-26.24,13.82-40.98,13.29c-10.1-0.26-4.53-2.59-11.64-10.63c-3.96-4.05-3.6-11.04,0.56-14.81
				c8.92-8.76,5.28-9.03,17.16-8.7c11.25-0.01,22.22,2.78,32.89,6.09c8.31-13.55,9.04-30.37,5.14-45.47
				c-6.46-23.96-17.67-46.29-24.85-70.02c-4.83-14.6-6.95-30.25-4.84-45.55C144.61,314.01,153.07,299.52,166.06,291.06z
				 M121.8,501.01c-0.16,4.18,4.03,6.67,7.61,7.51c11.03,2.64,22.55-1.99,30.46-9.68c-8.73-5.47-19.53-7.48-29.62-5.42
				C126.51,494.3,121.97,496.65,121.8,501.01z"/>
		</g>
		<path class="st0" d="M472.84,323.19c15-2.77,29.06-9.41,41.28-18.45c-2.8,12.54-2.64,25.48-2.76,38.26
			c0.16,39.42-0.25,78.85,0.2,118.26c0.75,15.51,1.73,34.6,16.34,43.85c-0.95,1.91-1.9,3.82-2.84,5.74
			c-6.3-1.85-12.86-2.38-19.4-2.32c-1.06-4.35-4.63-8.29-9.51-6.78c-5.05,0.68-4.85,6.5-4.73,10.35
			c-14.98,4.69-29.26,13.03-45.37,12.83c-8.22,0.38-17.72-0.93-22.88-8.11c-3.78-4.56-4.26-12.13,0.23-16.37
			c4.64-4.63,13.56-3.31,16.55,2.55c1.44,3.48,0.55,7.34,0.31,10.97c9.63,0.71,20.22-0.29,27.73-7.01
			c12.23-10.93,16.39-28.13,16.67-43.96c0.04-31.68,0.02-63.37,0.01-95.05c-0.24-11.06-0.14-22.29-2.69-33.12
			C480.89,329.72,476.79,326.21,472.84,323.19z"/>
		<g>
			<path class="st0" d="M901.6,338.61c13.28-12.33,32.95-14.97,50.16-11.37c6.96,1.93,14.03,5.4,21.39,3.12
				c-0.01,14.67,2.32,29.25,1.87,43.94c-3.25-8.27-6.45-16.99-13.26-23.07c-9.03-9.15-24.25-11.37-35.36-4.81
				c-8.32,5-13.23,13.95-16.27,22.89c-5.68,17.24-5.87,35.69-4.7,53.63c1.35,13.89,4.76,28.6,14.51,39.12
				c8.41,9.08,22.83,9.81,33.45,4.43c3.36-1.36,2.25-5.59,2.51-8.44c-0.57-17.3,0.71-34.66-0.79-51.92
				c-0.41-7.74-4.58-14.76-11.11-18.89c14.33,0.18,28.67,0.07,43.01,0.07c-6.19,5.46-7.54,13.88-7.36,21.72
				c0.09,24.87-0.28,49.75,0.2,74.61c-10.71-6.79-23.24-0.35-34.05,2.82c9.55,0.24,19.22-0.03,28.58,2.23
				c-0.69,0.94-1.43,1.83-2.05,2.81c-34.32,1.04-69.28,2.81-102.17,13.72c-3.68,1.34-7.48,2.3-11.36,2.73
				c20.31-10.56,42.98-16.65,65.62-19.74c-17.34-2.15-31.3-15.12-37.68-30.94c-8.58-19.47-9.29-41.26-8.26-62.18
				C880.05,374.63,885.96,352.89,901.6,338.61z"/>
		</g>
		<g>
			<path class="st0" d="M257.18,328.16c13.44,0.41,26.88-0.01,40.32,0.25c11.97,44.94,24.07,89.84,36.24,134.73
				c2.08,8.55,5.87,17,13.42,22.06c-15.42,0.35-30.86,0.22-46.28,0.07c11.7-9.45,5.1-25.86,2.7-38.12
				c-15.83-0.41-31.66-0.25-47.49-0.09c-1.91,12.37-9.29,28.85,2.9,38.21c-13.39,0.17-26.79,0.26-40.18-0.06
				c12.51-8.43,13.51-24.77,17.48-38c6.53-25.14,13.29-50.22,19.66-75.4c2.96-10.74,6.15-21.63,6.27-32.84
				C262.49,334.69,259.85,331.18,257.18,328.16z M278.57,356.69c-6.12,24.45-12.24,48.91-17.83,73.48
				c12.73,0.29,25.47,0.22,38.21,0.05C292.06,405.74,285.99,381.01,278.57,356.69z"/>
		</g>
		<path class="st0" d="M355.21,328.3c8.54,0.06,17.08,0.02,25.62,0.03c-1.53,17.53-3.22,35.05-4.85,52.58
			c-5.33,0.12-10.66,0.11-15.98,0.01C358.47,363.37,356.67,345.85,355.21,328.3z"/>
		<g>
			<path class="st0" d="M571.2,328.14c13.5,0.41,27,0.12,40.51,0.16c12.07,45.22,24.26,90.41,36.44,135.61
				c2.08,8.06,5.72,16.15,12.96,20.84c10.29-5.09,10.89-17.76,11.06-27.77c0.08-34.34,0.26-68.68-0.1-103.01
				c0.12-9.84-2.28-21.15-12.1-25.72c16.36,0.14,32.72,0.1,49.08,0.03c-14.22,7.3-11.68,25.4-12.03,38.72
				c0.01,33.99-0.01,67.97,0.01,101.96c11.4-0.41,23.32,1.5,34.25-2.71c9.14-3.08,15.15-10.86,20.27-18.58
				c-2.17,13.33-5.12,26.53-6.88,39.92c-7.88-3.09-16.43-1.77-24.67-1.96c-35.1-0.12-70.19,0.18-105.29-0.17
				c12.27-9.27,5.77-26.02,2.99-38.32c-15.78-0.33-31.58-0.35-47.35,0c-2.06,12.31-9.01,28.68,2.78,38.12
				c-13.42,0.19-26.85,0.26-40.27-0.04c7.8-4.75,11.29-13.45,13.49-21.89c9.37-36.01,18.95-71.96,28.07-108.03
				C576.29,346.38,579.17,334.98,571.2,328.14z M592.71,355.85c-5.55,24.86-12.17,49.49-17.78,74.34
				c12.73,0.21,25.47,0.31,38.2-0.06C606.44,405.34,599.91,380.49,592.71,355.85z"/>
		</g>
		<g>
			<path class="st0" d="M786.18,328.15c13.5,0.38,27.02,0.12,40.53,0.15c12.11,45.5,24.38,90.96,36.68,136.41
				c1.96,8.04,6.17,15.48,12.88,20.5c-15.42,0.34-30.84,0.21-46.25,0.07c11.85-9.45,5.44-25.91,2.68-38.14
				c-15.78-0.34-31.57-0.35-47.35,0.01c-2.12,12.33-8.91,28.56,2.76,38.12c-13.42,0.16-26.84,0.25-40.25-0.05
				c8.62-5.21,11.77-15.12,14.15-24.3c9.11-35.14,18.42-70.23,27.44-105.4C791.14,346.55,794.36,334.94,786.18,328.15z
				 M807.71,355.85c-5.62,24.85-12.15,49.5-17.78,74.34c12.73,0.2,25.47,0.31,38.19-0.06C821.45,405.34,814.91,380.49,807.71,355.85
				z"/>
		</g>
		<g>
			<path class="st0" d="M1026.2,328.14c13.5,0.42,27.01,0.1,40.52,0.17c12.07,45.22,24.23,90.41,36.43,135.59
				c2.08,8.07,5.73,16.15,12.96,20.85c10.31-5.09,10.93-17.73,11.05-27.77c0.09-34.33,0.27-68.68-0.09-103.01
				c0.12-9.84-2.28-21.15-12.11-25.72c15.7,0.17,31.39,0.05,47.09,0.06c15.3-0.35,31.32,3.32,43.17,13.46
				c17.1,14.34,23.28,37.69,23.14,59.24c0.49,21.97-4.56,45.15-19.14,62.2c-12.03,14.29-30.69,22.17-49.25,22.16
				c-29.99-0.03-59.97,0.15-89.96-0.1c12.14-9.35,5.21-25.85,2.68-38.12c-15.78-0.36-31.58-0.35-47.36-0.01
				c-1.92,12.33-9.03,28.68,2.8,38.12c-13.42,0.18-26.85,0.26-40.26-0.04c7.78-4.76,11.28-13.45,13.48-21.89
				c9.15-34.84,18.15-69.73,27.34-104.56C1030.68,348.85,1035.01,336,1026.2,328.14z M1152.02,344.91c0.01,41.38,0,82.77,0,124.15
				c12.77,0.77,25.96-3.78,34.35-13.68c14.55-16.29,17.36-39.34,16.14-60.34c-1.27-17.66-8.24-37.04-24.79-45.77
				C1169.87,345.03,1160.73,344.7,1152.02,344.91z M1047.71,355.85c-5.54,24.87-12.19,49.49-17.78,74.34
				c12.71,0.23,25.44,0.26,38.16-0.01C1061.51,405.35,1054.9,380.51,1047.71,355.85z"/>
		</g>
		<g>
			<path class="st0" d="M1269.06,328.26c13.27,0.14,26.54,0.08,39.81,0.02c12.52,46.12,24.64,92.34,37.41,138.39
				c1.87,7.67,6.44,14.37,12.91,18.89c-15.75,0.14-31.51-0.02-47.26,0.09c12.18-9.45,5.96-26.14,2.86-38.51
				c-15.78-0.34-31.58-0.33-47.35-0.01c-1.27,9.23-4.63,18.37-3.47,27.8c0.39,4.58,3.96,7.77,7.1,10.72
				c-13.77-0.1-27.54,0.03-41.3-0.08c12.59-8.04,13.79-24.12,17.72-37.17c7.94-30.64,16.08-61.23,23.93-91.89
				C1273.34,347.26,1276.61,335.91,1269.06,328.26z M1272.08,430.25c12.74,0.09,25.48,0.27,38.22-0.12
				c-6.25-24.88-13.72-49.43-20-74.31C1283.99,380.57,1278.09,405.43,1272.08,430.25z"/>
		</g>
		<path class="st0" d="M1401.64,459.29c0.39-7.36,12.63-8.22,13.61-0.71c3.95,22.17-10.19,43.73-28.24,55.42
			c-17.22,11.1-37.93,15.2-58.11,16.32c-30.58,2.37-61.28,1.03-91.89,0.17c-99.34-5.18-198.17-24.24-297.94-17.81
			c-27.87,1.43-55.84,6.05-81.8,16.6c-5.08,1.99-9.74,5.15-15.2,6.07c-0.33-1.05-0.68-2.09-1.03-3.12
			c18.81-12.9,41.28-19.64,63.54-23.82c26.44-5.32,53.53-5.7,80.41-6.11c93.21-0.28,185.32,17.43,278.44,19.21
			c28.45,0.34,57.16-0.15,85.14-5.83c15.62-3.21,31.24-10.01,41.58-22.56C1398.26,483.8,1401.33,471.38,1401.64,459.29z"/>
		<path class="st0" d="M1425.04,475.02c1.6-3.18,6.65-3.78,8.29-0.3c2.54,5.34-0.09,11.32-2.2,16.36
			c-8.72,20.36-28.44,36.26-50.76,38.34c2.41-1.34,4.89-2.55,7.45-3.63c14.93-5.86,27.05-18.42,32.5-33.49
			C1422.44,486.69,1422.07,480.31,1425.04,475.02z"/>
	</g>
</g>
</svg>
